<svg xmlns="http://www.w3.org/2000/svg" xmlns:xlink="http://www.w3.org/1999/xlink" viewBox="0 0 729.97 453.8"><defs><style>.cls-1,.cls-4,.cls-5{fill:none;}.cls-2{opacity:0.21;}.cls-22,.cls-3,.cls-34,.cls-35,.cls-37{fill:#fff;}.cls-4{stroke:#befc13;opacity:0.84;}.cls-4,.cls-5{stroke-miterlimit:10;stroke-width:2px;}.cls-5{stroke:#9da86d;}.cls-6{fill:#c0cc4e;}.cls-7{fill:#787878;}.cls-8{fill:#0e0f03;}.cls-9{fill:#d3f935;}.cls-10,.cls-22,.cls-29{opacity:0.2;}.cls-11,.cls-19,.cls-27{fill:#8f9394;}.cls-12{fill:#d0fb3f;}.cls-13{fill:#2b262f;}.cls-14{fill:#3f3944;}.cls-15{fill:#ced0d1;}.cls-16{fill:#8f9193;}.cls-17{fill:#c9cbcc;}.cls-18{fill:#322d38;}.cls-19,.cls-28,.cls-32{opacity:0.4;}.cls-19,.cls-22,.cls-25,.cls-27,.cls-29,.cls-32,.cls-34,.cls-35,.cls-37{isolation:isolate;}.cls-20{fill:#231f1d;}.cls-21{fill:#8b2327;}.cls-23{fill:#e8e5c6;}.cls-24{fill:#dd902f;}.cls-25,.cls-26,.cls-29{fill:#424243;}.cls-25{opacity:0.5;}.cls-27,.cls-34{opacity:0.3;}.cls-30{fill:#c8e83b;}.cls-31{fill:#c4e33a;}.cls-32{fill:#acacac;}.cls-33{fill:#1f252a;}.cls-35{opacity:0.1;}.cls-36{clip-path:url(#clip-path);}.cls-37{opacity:0.25;}.cls-38{clip-path:url(#clip-path-2);}</style><clipPath id="clip-path" transform="translate(-7.34 -23.75)"><path class="cls-1" d="M515.91,274.55a7.31,7.31,0,0,1-.59,2c-1.45,3-5,5.82-7.25,8.31-3.51,3.88-9.05,4.43-9.05,4.43s-183.75,9.77-202.4,6.81-7.2-19.21-7.2-19.21L326,246.69c12.37-10.43,32.14-13.76,32.14-13.76,42.8-5.09,131.86-6.09,131.86-6.09a10.43,10.43,0,0,1,9.24,5c0,.55,1.32,1.95,1.64,2.45.61,1,1.19,2,1.75,3a174.16,174.16,0,0,1,9.27,20.29,90.28,90.28,0,0,1,3.39,9A18.38,18.38,0,0,1,515.91,274.55Z"/></clipPath><clipPath id="clip-path-2" transform="translate(-7.34 -23.75)"><path class="cls-1" d="M562.79,283.66c-7,0-11.08-6.19-11.08-6.19l-25.49-42.29c-4.09-6.84,2-8.31,2-8.31,22.17.27,98.35,1.94,98.35,1.94,15,15.23,30.2,54.85,30.2,54.85Z"/></clipPath></defs><g id="Background_Simple" data-name="Background Simple"><g class="cls-2"><path class="cls-3" d="M735.09,213.14c-2.73-40.59-28.07-79.3-65.31-108.81C648,87.06,622.05,72.08,594,60.58c-29.17-11.93-60.89-25.32-95.48-26.75a97.88,97.88,0,0,0-25.57,2C441.05,43,505.76,64.8,514.24,68,424.09,44.08,330.8,19.79,233.68,24.3c-18.72.86-38.09,3-54.25,10.38S151.14,56,154.22,69.4c2.55,11.11,14.23,23.33,4.21,32.26-2.86,2.56-7,4.12-11.1,5.49-21,7-43.77,10.93-63.54,19.7-30.6,13.58-50.8,37.78-59.51,63s-7,51.46-2,76.8c9.5,47.71,31.52,94.77,73.37,131.14,59.77,52,155,77.08,249.31,79.57,114.14,3,236.32-27.85,308.6-94.88,10.72-9.94,20.47-20.91,24-33.17s-.36-26.07-13.24-33.8c-3.46-2.08-7.91-4.28-7.7-7.63.29-4.54,8.23-6.23,14.3-7.31,39.8-7.07,61.21-40.53,64-70.27A108,108,0,0,0,735.09,213.14Z" transform="translate(-7.34 -23.75)"/></g></g><g id="Clouds"><path class="cls-4" d="M215.08,101.79c2.89-1.71,5.33-5.1,8.1-7.27A39,39,0,0,1,247.9,85.9c20.69.42,29.13,22.8,31.66,23.64s8-8,17.31-6.33,11,9.28,13.93,11.4,11-3.8,16-2.12,4.22,7.18,9.29,7.6,8-2.11,11.82-1.26,6.33,4.64,6.33,4.64q-88,0-176.08,0-64.36,0-128.73,0c4.63-7.83,11.09-15.07,19.65-18.13,13.07-4.66,27.21,1.29,40.9,3.53a6.44,6.44,0,0,0,4.08-.25c1.65-.87,2.28-2.88,2.71-4.7,2.45-10.37,3.8-21.34,9.52-30.32,9-14,28.63-20,43.87-13.33,14.31,6.27,22.65,20.94,31,34.12,1.68,2.65,3.48,5.35,6.12,7C210.42,103.4,212.88,103.09,215.08,101.79Z" transform="translate(-7.34 -23.75)"/><path class="cls-4" d="M481.73,149.9c1.66-1,3.06-2.93,4.66-4.18a22.44,22.44,0,0,1,14.22-5c11.89.24,16.75,13.11,18.21,13.6s4.61-4.62,9.95-3.64,6.31,5.34,8,6.55,6.31-2.18,9.23-1.21,2.43,4.12,5.34,4.37,4.61-1.22,6.8-.73a6.87,6.87,0,0,1,3.64,2.67H386.48c2.67-4.5,6.38-8.67,11.31-10.43,7.51-2.68,15.65.74,23.52,2a3.76,3.76,0,0,0,2.35-.14,3.85,3.85,0,0,0,1.55-2.7c1.41-6,2.19-12.28,5.48-17.44,5.14-8.07,16.46-11.51,25.23-7.67,8.23,3.61,13,12,17.84,19.63a12.74,12.74,0,0,0,3.52,4A3.88,3.88,0,0,0,481.73,149.9Z" transform="translate(-7.34 -23.75)"/><path class="cls-4" d="M628.76,66.4c1.4-.82,2.58-2.46,3.91-3.51a18.83,18.83,0,0,1,12-4.16c10,.2,14.07,11,15.3,11.42s3.87-3.88,8.36-3.06,5.3,4.49,6.73,5.51,5.3-1.84,7.75-1,2,3.46,4.49,3.67,3.87-1,5.71-.61A5.78,5.78,0,0,1,696,76.88H548.74c2.24-3.78,5.36-7.28,9.5-8.76,6.31-2.25,13.15.62,19.76,1.71a3.15,3.15,0,0,0,2-.13,3.23,3.23,0,0,0,1.31-2.27c1.18-5,1.84-10.31,4.6-14.65a17.6,17.6,0,0,1,21.2-6.44c6.91,3,10.94,10.12,15,16.49a10.34,10.34,0,0,0,3,3.4A3.25,3.25,0,0,0,628.76,66.4Z" transform="translate(-7.34 -23.75)"/></g><g id="Mountains"><path class="cls-5" d="M723.66,328.1c5.13,4.56,8.05,7.18,8.05,7.18" transform="translate(-7.34 -23.75)"/><path class="cls-5" d="M564.48,198.86C607.73,226.89,686.1,295,717.83,323" transform="translate(-7.34 -23.75)"/><path class="cls-5" d="M256.38,219.24c59.08,17.64,143.92,55.32,143.92,55.32S514.83,193.06,537,186.67c3.48-1,10.64,2,20.26,7.67" transform="translate(-7.34 -23.75)"/><path class="cls-5" d="M7.84,311.31s164.16-95.08,200-100.67c8.58-1.34,24.08,1.62,42.69,6.91" transform="translate(-7.34 -23.75)"/></g><g id="Trees"><path class="cls-6" d="M709.53,193.64c0,36.93-21.85,66.87-48.8,66.87s-48.79-29.94-48.79-66.87S633.78,29.79,660.73,29.79,709.53,156.71,709.53,193.64Z" transform="translate(-7.34 -23.75)"/><polygon class="cls-7" points="627.04 173.21 642.6 178.64 650.31 189.12 648.96 221.21 639.99 215.12 648.68 227.85 646.04 419.02 657.82 419.02 654.91 203.46 680.75 189.21 665.98 194.68 668.95 185.78 661.88 196.19 654.83 198.8 654.33 169.6 679.99 135.49 666.24 149.25 668.56 139.69 661.98 153.5 654.18 161.31 653.39 115.68 650.6 182.22 626.27 156.45 639.64 174.61 627.04 173.21"/><path class="cls-3" d="M687.58,139.57s.45,4.48-2,7.78-6.88,4.14-6.88,4.14-.45-4.48,2-7.77S687.58,139.57,687.58,139.57Z" transform="translate(-7.34 -23.75)"/><path class="cls-3" d="M702.28,160.23s.45,4.49-2,7.78-6.87,4.14-6.87,4.14-.45-4.48,2-7.77S702.28,160.23,702.28,160.23Z" transform="translate(-7.34 -23.75)"/><path class="cls-3" d="M702.28,200.47s-1.09,4.37-4.5,6.64-7.87,1.59-7.87,1.59,1.08-4.37,4.5-6.65S702.28,200.47,702.28,200.47Z" transform="translate(-7.34 -23.75)"/><path class="cls-3" d="M621.51,200.47s1.08,4.37,4.5,6.64,7.86,1.59,7.86,1.59-1.08-4.37-4.5-6.65S621.51,200.47,621.51,200.47Z" transform="translate(-7.34 -23.75)"/><path class="cls-3" d="M685.29,183.77s.45,4.48-2,7.77-6.87,4.14-6.87,4.14-.46-4.48,2-7.77S685.29,183.77,685.29,183.77Z" transform="translate(-7.34 -23.75)"/><path class="cls-3" d="M681.48,117.09s.45,4.49-2,7.78-6.87,4.14-6.87,4.14-.46-4.48,2-7.77S681.48,117.09,681.48,117.09Z" transform="translate(-7.34 -23.75)"/><path class="cls-3" d="M672.72,134.24s.45,4.48-2,7.77-6.88,4.15-6.88,4.15-.45-4.49,2-7.78S672.72,134.24,672.72,134.24Z" transform="translate(-7.34 -23.75)"/><path class="cls-3" d="M693.52,121.76s.45,4.48-2,7.77-6.87,4.14-6.87,4.14-.46-4.48,2-7.77S693.52,121.76,693.52,121.76Z" transform="translate(-7.34 -23.75)"/><path class="cls-3" d="M625.92,121.76s-.45,4.48,2,7.77,6.87,4.14,6.87,4.14.46-4.48-2-7.77S625.92,121.76,625.92,121.76Z" transform="translate(-7.34 -23.75)"/><path class="cls-3" d="M683.38,96.14s.46,4.48-2,7.77-6.87,4.15-6.87,4.15-.45-4.49,2-7.78S683.38,96.14,683.38,96.14Z" transform="translate(-7.34 -23.75)"/><path class="cls-3" d="M679.08,73.88s1.56,4.23,0,8-5.62,5.74-5.62,5.74-1.56-4.23,0-8S679.08,73.88,679.08,73.88Z" transform="translate(-7.34 -23.75)"/><path class="cls-3" d="M648.22,68.06s4,2.1,5.39,6-.32,8-.32,8-4-2.09-5.39-5.94S648.22,68.06,648.22,68.06Z" transform="translate(-7.34 -23.75)"/><path class="cls-3" d="M662.61,94.68s2.84,3.5,2.61,7.59-3.46,7.25-3.46,7.25-2.85-3.5-2.61-7.6S662.61,94.68,662.61,94.68Z" transform="translate(-7.34 -23.75)"/><path class="cls-3" d="M661.85,55.06s2.84,3.49,2.61,7.59S661,69.89,661,69.89s-2.85-3.49-2.61-7.59S661.85,55.06,661.85,55.06Z" transform="translate(-7.34 -23.75)"/><path class="cls-3" d="M629.55,139.57s-.45,4.48,2,7.78,6.88,4.14,6.88,4.14.45-4.48-2-7.77S629.55,139.57,629.55,139.57Z" transform="translate(-7.34 -23.75)"/><path class="cls-3" d="M621.17,164s-.45,4.49,2,7.78,6.88,4.14,6.88,4.14.45-4.48-2-7.77S621.17,164,621.17,164Z" transform="translate(-7.34 -23.75)"/><path class="cls-3" d="M643.42,172.81s-.45,4.48,2,7.77,6.88,4.15,6.88,4.15.45-4.49-2-7.78S643.42,172.81,643.42,172.81Z" transform="translate(-7.34 -23.75)"/><path class="cls-3" d="M649.5,139s-1.71,4.17-.31,8,5.4,5.94,5.4,5.94,1.72-4.16.31-8S649.5,139,649.5,139Z" transform="translate(-7.34 -23.75)"/><path class="cls-3" d="M633.75,228.92s4.5.09,7.58-2.63,3.57-7.19,3.57-7.19-4.5-.08-7.58,2.63S633.75,228.92,633.75,228.92Z" transform="translate(-7.34 -23.75)"/><path class="cls-3" d="M677,224s1.22,4.33,4.71,6.5,7.91,1.33,7.91,1.33-1.22-4.34-4.71-6.5S677,224,677,224Z" transform="translate(-7.34 -23.75)"/><path class="cls-3" d="M638.78,117.09s-.46,4.49,2,7.78,6.88,4.14,6.88,4.14.45-4.48-2-7.77S638.78,117.09,638.78,117.09Z" transform="translate(-7.34 -23.75)"/><path class="cls-3" d="M638.7,97.28s-.45,4.49,2,7.78,6.87,4.14,6.87,4.14.45-4.48-2-7.77S638.7,97.28,638.7,97.28Z" transform="translate(-7.34 -23.75)"/><path class="cls-6" d="M155.83,239.84c0,30.08-17.79,54.47-39.74,54.47s-39.75-24.39-39.75-54.47,17.8-133.47,39.75-133.47S155.83,209.76,155.83,239.84Z" transform="translate(-7.34 -23.75)"/><polygon class="cls-7" points="87.28 218.79 99.96 223.22 106.24 231.75 105.14 257.89 97.83 252.93 104.91 263.3 102.76 419.02 112.36 419.02 109.98 243.43 131.04 231.83 119 236.28 121.42 229.03 115.66 237.51 109.92 239.64 109.51 215.85 130.42 188.07 119.21 199.28 121.11 191.48 115.75 202.74 109.39 209.09 108.75 171.93 106.47 226.13 86.66 205.14 97.54 219.93 87.28 218.79"/><path class="cls-3" d="M138,195.8a8.61,8.61,0,0,1-7.22,9.7,8.61,8.61,0,0,1,7.22-9.7Z" transform="translate(-7.34 -23.75)"/><path class="cls-3" d="M149.93,212.63a8.63,8.63,0,0,1-7.23,9.7,8.63,8.63,0,0,1,7.23-9.7Z" transform="translate(-7.34 -23.75)"/><path class="cls-3" d="M149.93,245.4a8.66,8.66,0,0,1-10.08,6.71,8.64,8.64,0,0,1,10.08-6.71Z" transform="translate(-7.34 -23.75)"/><path class="cls-3" d="M84.14,245.4a10.12,10.12,0,0,0,3.66,5.41,10.19,10.19,0,0,0,6.41,1.3,10.13,10.13,0,0,0-3.66-5.42A10.16,10.16,0,0,0,84.14,245.4Z" transform="translate(-7.34 -23.75)"/><path class="cls-3" d="M136.09,231.79a8.63,8.63,0,0,1-7.23,9.71,8.64,8.64,0,0,1,7.23-9.71Z" transform="translate(-7.34 -23.75)"/><path class="cls-3" d="M133,177.49a8.63,8.63,0,0,1-7.23,9.7,8.63,8.63,0,0,1,7.23-9.7Z" transform="translate(-7.34 -23.75)"/><path class="cls-3" d="M125.85,191.45a8.64,8.64,0,0,1-7.23,9.71,8.64,8.64,0,0,1,7.23-9.71Z" transform="translate(-7.34 -23.75)"/><path class="cls-3" d="M142.8,181.28a8.63,8.63,0,0,1-7.23,9.71,8.64,8.64,0,0,1,7.23-9.71Z" transform="translate(-7.34 -23.75)"/><path class="cls-3" d="M87.73,181.28A8.63,8.63,0,0,0,95,191a8.64,8.64,0,0,0-7.23-9.71Z" transform="translate(-7.34 -23.75)"/><path class="cls-3" d="M134.54,160.42a8.64,8.64,0,0,1-7.23,9.71,8.63,8.63,0,0,1,7.23-9.71Z" transform="translate(-7.34 -23.75)"/><path class="cls-3" d="M131,142.29a8.62,8.62,0,0,1-4.56,11.21A8.64,8.64,0,0,1,131,142.29Z" transform="translate(-7.34 -23.75)"/><path class="cls-3" d="M105.9,137.55A8.62,8.62,0,0,1,110,148.93a8.63,8.63,0,0,1-4.12-11.38Z" transform="translate(-7.34 -23.75)"/><path class="cls-3" d="M117.62,159.23a8.63,8.63,0,0,1-.7,12.08,8.63,8.63,0,0,1,.7-12.08Z" transform="translate(-7.34 -23.75)"/><path class="cls-3" d="M117,127a8.65,8.65,0,0,1-.7,12.09A8.65,8.65,0,0,1,117,127Z" transform="translate(-7.34 -23.75)"/><path class="cls-3" d="M90.69,195.8a8.63,8.63,0,0,0,7.23,9.7,8.63,8.63,0,0,0-7.23-9.7Z" transform="translate(-7.34 -23.75)"/><path class="cls-3" d="M83.86,215.66a8.63,8.63,0,0,0,7.23,9.7,8.63,8.63,0,0,0-7.23-9.7Z" transform="translate(-7.34 -23.75)"/><path class="cls-3" d="M102,222.87a8.64,8.64,0,0,0,7.23,9.71,8.63,8.63,0,0,0-7.23-9.71Z" transform="translate(-7.34 -23.75)"/><path class="cls-3" d="M106.94,195.35a8.64,8.64,0,0,0,4.15,11.37,8.64,8.64,0,0,0-4.15-11.37Z" transform="translate(-7.34 -23.75)"/><path class="cls-3" d="M94.11,268.58a8.62,8.62,0,0,0,9.08-8,8.62,8.62,0,0,0-9.08,8Z" transform="translate(-7.34 -23.75)"/><path class="cls-3" d="M129.32,264.56A8.64,8.64,0,0,0,139.61,271a8.64,8.64,0,0,0-10.29-6.39Z" transform="translate(-7.34 -23.75)"/><path class="cls-3" d="M98.2,177.49a8.63,8.63,0,0,0,7.23,9.7,8.63,8.63,0,0,0-7.23-9.7Z" transform="translate(-7.34 -23.75)"/><path class="cls-3" d="M98.14,161.35a8.64,8.64,0,0,0,7.23,9.71,8.63,8.63,0,0,0-7.23-9.71Z" transform="translate(-7.34 -23.75)"/><path class="cls-6" d="M470.43,221.07c0,32.86-19.44,59.5-43.42,59.5s-43.42-26.64-43.42-59.5S403,75.25,427,75.25,470.43,188.2,470.43,221.07Z" transform="translate(-7.34 -23.75)"/><polygon class="cls-7" points="396.22 200.27 410.07 205.1 416.93 214.43 415.73 242.98 407.75 237.56 415.48 248.89 413.13 419.02 423.62 419.02 421.02 227.19 444.02 214.51 430.87 219.37 433.51 211.46 427.23 220.72 420.95 223.04 420.5 197.05 443.35 166.7 431.1 178.95 433.17 170.43 427.32 182.73 420.38 189.67 419.68 149.07 417.19 208.29 395.54 185.35 407.43 201.51 396.22 200.27"/><path class="cls-3" d="M450.9,173a9.42,9.42,0,0,1-7.9,10.6,9.42,9.42,0,0,1,7.9-10.6Z" transform="translate(-7.34 -23.75)"/><path class="cls-3" d="M464,191.34a9.44,9.44,0,0,1-7.9,10.6,9.42,9.42,0,0,1,7.9-10.6Z" transform="translate(-7.34 -23.75)"/><path class="cls-3" d="M464,227.14a9.44,9.44,0,0,1-11,7.33,9.42,9.42,0,0,1,11-7.33Z" transform="translate(-7.34 -23.75)"/><path class="cls-3" d="M392.1,227.14a9.46,9.46,0,0,0,11,7.33,9.42,9.42,0,0,0-11-7.33Z" transform="translate(-7.34 -23.75)"/><path class="cls-3" d="M448.87,212.28a9.44,9.44,0,0,1-7.9,10.6,9.42,9.42,0,0,1,7.9-10.6Z" transform="translate(-7.34 -23.75)"/><path class="cls-3" d="M445.47,152.94a9.42,9.42,0,0,1-7.89,10.61,9.44,9.44,0,0,1,7.89-10.61Z" transform="translate(-7.34 -23.75)"/><path class="cls-3" d="M437.68,168.2a9.44,9.44,0,0,1-7.9,10.61,9.44,9.44,0,0,1,7.9-10.61Z" transform="translate(-7.34 -23.75)"/><path class="cls-3" d="M456.19,157.09a9.44,9.44,0,0,1-7.9,10.61,9.44,9.44,0,0,1,7.9-10.61Z" transform="translate(-7.34 -23.75)"/><path class="cls-3" d="M396,157.09a9.44,9.44,0,0,0,7.9,10.61,9.44,9.44,0,0,0-7.9-10.61Z" transform="translate(-7.34 -23.75)"/><path class="cls-3" d="M447.17,134.3a9.44,9.44,0,0,1-7.9,10.6,9.42,9.42,0,0,1,7.9-10.6Z" transform="translate(-7.34 -23.75)"/><path class="cls-3" d="M443.34,114.49a11.06,11.06,0,0,1,0,7.14,11.1,11.1,0,0,1-5,5.11,11.13,11.13,0,0,1,0-7.15A11.09,11.09,0,0,1,443.34,114.49Z" transform="translate(-7.34 -23.75)"/><path class="cls-3" d="M415.88,109.31a11.06,11.06,0,0,1,4.79,5.29,11.08,11.08,0,0,1-.28,7.14,11.06,11.06,0,0,1-4.8-5.29A11.05,11.05,0,0,1,415.88,109.31Z" transform="translate(-7.34 -23.75)"/><path class="cls-3" d="M428.68,133a9.43,9.43,0,0,1-.76,13.2,9.43,9.43,0,0,1,.76-13.2Z" transform="translate(-7.34 -23.75)"/><path class="cls-3" d="M428,97.74a11.08,11.08,0,0,1,2.32,6.75,11.09,11.09,0,0,1-3.08,6.45,11.09,11.09,0,0,1-2.32-6.76A11,11,0,0,1,428,97.74Z" transform="translate(-7.34 -23.75)"/><path class="cls-3" d="M399.27,173a9.4,9.4,0,0,0,7.89,10.6,9.42,9.42,0,0,0-7.89-10.6Z" transform="translate(-7.34 -23.75)"/><path class="cls-3" d="M391.81,194.65a9.44,9.44,0,0,0,7.89,10.6,9.42,9.42,0,0,0-7.89-10.6Z" transform="translate(-7.34 -23.75)"/><path class="cls-3" d="M411.61,202.52a9.44,9.44,0,0,0,7.89,10.61,9.44,9.44,0,0,0-7.89-10.61Z" transform="translate(-7.34 -23.75)"/><path class="cls-3" d="M417,172.46a9.42,9.42,0,0,0,4.53,12.42A9.42,9.42,0,0,0,417,172.46Z" transform="translate(-7.34 -23.75)"/><path class="cls-3" d="M403,252.46a9.43,9.43,0,0,0,9.92-8.74,9.43,9.43,0,0,0-9.92,8.74Z" transform="translate(-7.34 -23.75)"/><path class="cls-3" d="M441.47,248.08a9.43,9.43,0,0,0,11.23,7,9.43,9.43,0,0,0-11.23-7Z" transform="translate(-7.34 -23.75)"/><path class="cls-3" d="M407.47,152.94a9.44,9.44,0,0,0,7.9,10.61,9.44,9.44,0,0,0-7.9-10.61Z" transform="translate(-7.34 -23.75)"/><path class="cls-3" d="M407.4,135.31a9.44,9.44,0,0,0,7.9,10.61,9.44,9.44,0,0,0-7.9-10.61Z" transform="translate(-7.34 -23.75)"/><path class="cls-6" d="M265.46,273.41c0,25.1-14.85,45.46-33.17,45.46s-33.17-20.36-33.17-45.46S214,162,232.29,162,265.46,248.3,265.46,273.41Z" transform="translate(-7.34 -23.75)"/><polygon class="cls-7" points="207.03 251.91 217.61 255.6 222.85 262.73 221.94 284.54 215.84 280.4 221.75 289.06 219.95 419.02 227.96 419.02 225.98 272.48 243.55 262.79 233.51 266.51 235.52 260.46 230.72 267.54 225.93 269.31 225.59 249.46 243.03 226.27 233.68 235.62 235.26 229.12 230.79 238.52 225.49 243.82 224.95 212.8 223.05 258.04 206.51 240.52 215.6 252.87 207.03 251.91"/><path class="cls-3" d="M250.54,236.65a7.21,7.21,0,0,1-6,8.1,7.19,7.19,0,0,1,6-8.1Z" transform="translate(-7.34 -23.75)"/><path class="cls-3" d="M260.54,250.7a7.21,7.21,0,0,1-6,8.1,7.19,7.19,0,0,1,6-8.1Z" transform="translate(-7.34 -23.75)"/><path class="cls-3" d="M260.53,278.05a7.19,7.19,0,0,1-8.41,5.59,7.21,7.21,0,0,1,8.41-5.59Z" transform="translate(-7.34 -23.75)"/><path class="cls-3" d="M205.62,278.05a7.19,7.19,0,0,0,8.41,5.59,7.21,7.21,0,0,0-8.41-5.59Z" transform="translate(-7.34 -23.75)"/><path class="cls-3" d="M249,266.69a7.21,7.21,0,0,1-6,8.11,7.21,7.21,0,0,1,6-8.11Z" transform="translate(-7.34 -23.75)"/><path class="cls-3" d="M246.39,221.37a7.21,7.21,0,0,1-6,8.1,7.2,7.2,0,0,1,6-8.1Z" transform="translate(-7.34 -23.75)"/><path class="cls-3" d="M240.44,233a8.53,8.53,0,0,1-1.36,5.29,8.44,8.44,0,0,1-4.68,2.81,7.21,7.21,0,0,1,6-8.1Z" transform="translate(-7.34 -23.75)"/><path class="cls-3" d="M254.58,224.54a7.21,7.21,0,0,1-6,8.1,7.18,7.18,0,0,1,6-8.1Z" transform="translate(-7.34 -23.75)"/><path class="cls-3" d="M208.62,224.54a7.21,7.21,0,0,0,6,8.1,7.19,7.19,0,0,0-6-8.1Z" transform="translate(-7.34 -23.75)"/><path class="cls-3" d="M247.69,207.12a7.2,7.2,0,0,1-6,8.1,7.21,7.21,0,0,1,6-8.1Z" transform="translate(-7.34 -23.75)"/><path class="cls-3" d="M244.76,192a7.21,7.21,0,0,1-3.8,9.36,7.21,7.21,0,0,1,3.8-9.36Z" transform="translate(-7.34 -23.75)"/><path class="cls-3" d="M223.78,188a7.2,7.2,0,0,1,3.45,9.49,7.2,7.2,0,0,1-3.45-9.49Z" transform="translate(-7.34 -23.75)"/><path class="cls-3" d="M233.57,206.13a7.22,7.22,0,0,1-.58,10.09,7.19,7.19,0,0,1,.58-10.09Z" transform="translate(-7.34 -23.75)"/><path class="cls-3" d="M233.05,179.2a7.21,7.21,0,0,1-.58,10.08,7.21,7.21,0,0,1,.58-10.08Z" transform="translate(-7.34 -23.75)"/><path class="cls-3" d="M211.09,236.65a7.21,7.21,0,0,0,6,8.1,7.21,7.21,0,0,0-6-8.1Z" transform="translate(-7.34 -23.75)"/><path class="cls-3" d="M205.4,253.23a7.19,7.19,0,0,0,6,8.1,8.53,8.53,0,0,0-1.36-5.29A8.43,8.43,0,0,0,205.4,253.23Z" transform="translate(-7.34 -23.75)"/><path class="cls-3" d="M220.52,259.24a7.21,7.21,0,0,0,6,8.11,7.21,7.21,0,0,0-6-8.11Z" transform="translate(-7.34 -23.75)"/><path class="cls-3" d="M224.66,236.27a7.22,7.22,0,0,0,3.46,9.5,7.22,7.22,0,0,0-3.46-9.5Z" transform="translate(-7.34 -23.75)"/><path class="cls-3" d="M214,297.39a7.22,7.22,0,0,0,7.58-6.67,7.19,7.19,0,0,0-7.58,6.67Z" transform="translate(-7.34 -23.75)"/><path class="cls-3" d="M243.33,294a7.22,7.22,0,0,0,8.59,5.33,7.22,7.22,0,0,0-8.59-5.33Z" transform="translate(-7.34 -23.75)"/><path class="cls-3" d="M217.36,221.37a7.21,7.21,0,0,0,6,8.1,7.18,7.18,0,0,0-6-8.1Z" transform="translate(-7.34 -23.75)"/><path class="cls-3" d="M217.31,207.9a7.21,7.21,0,0,0,6,8.1,7.21,7.21,0,0,0-6-8.1Z" transform="translate(-7.34 -23.75)"/></g><g id="Floor"><g id="Layer_1" data-name="Layer 1"><polygon class="cls-8" points="630.74 294.53 183.51 294.53 134.83 308.82 123.75 359.53 134.83 385.41 253.82 384.48 490.59 379.31 614.36 367.89 630.74 294.53"/><path class="cls-9" d="M94.31,357.05l.55,19.39v.47a3.67,3.67,0,0,0,1.94,3.23h2L102.13,393l-1,4c1.65,3.78,6,7.57,6,7.57H142c.55-32,8.5-53.75,8.5-53.75,5.93-21.05,53.93-20.13,53.93-20.13,28.86,0,37.86,7.76,37.86,7.76,12.19,10,16.62,53.56,16.62,53.56l2.21,16.25,236.77-5.17,6.1-15.7A230.73,230.73,0,0,1,514.74,343c6.28-18.47,55.41-18.1,55.41-18.1,34,0,42.43,22.26,42.43,22.26,7,18.66,9.12,44.45,9.12,44.45,17.91-2,56.12-10.2,56.12-10.2,10.71-3.51,11.91-22.16,11.91-22.16l-1.6-14.92c-4.23-5.69-13.63-6.69-13.63-6.69V284.89a12.9,12.9,0,0,0-.55-3.7c-7.52-25.3-24.33-44.21-28.69-48.82a1.07,1.07,0,0,1-.19-.28,1.09,1.09,0,0,1,.52-1.45l1.73-.82a1.52,1.52,0,0,0,.34-.22,1.31,1.31,0,0,0,.08-1.84l-2.34-2.6a2.12,2.12,0,0,0-1.11-.66C601.64,215.11,385.64,221,385.64,221c-34.35,0-60.76,11.45-60.76,11.45-42.11,24.65-81.26,52.45-81.26,52.45A801.76,801.76,0,0,0,133.81,300.7c-18,4.15-24,10.25-24,10.25-9.88,13.16-12,42.24-12,42.24A12.42,12.42,0,0,0,94.31,357.05Z" transform="translate(-7.34 -23.75)"/><g class="cls-10"><path class="cls-11" d="M98.81,380.14,102.14,393l-1,4c1.65,3.78,6,7.57,6,7.57H142c.55-32,8.5-53.75,8.5-53.75a15.51,15.51,0,0,1,1.9-4.21L98.3,348.42c-.36,2.94-.49,4.77-.49,4.77a12.42,12.42,0,0,0-3.51,3.88l.55,19.39v.47a3.67,3.67,0,0,0,1.94,3.23Z" transform="translate(-7.34 -23.75)"/><path class="cls-11" d="M621.68,391.65c17.91-2,56.12-10.2,56.12-10.2,10.71-3.51,11.91-22.16,11.91-22.16l-1.6-14.92c-4.23-5.69-13.63-6.69-13.63-6.69v-8.84l-76.9,2.61c11.51,6.57,15,15.75,15,15.75C619.6,365.86,621.7,391.65,621.68,391.65Z" transform="translate(-7.34 -23.75)"/><path class="cls-11" d="M261.15,408.23l236.77-5.17,6.1-15.7A230.56,230.56,0,0,1,514.71,343C516,339.3,519,336.34,523,334l-276.6,9.4C255.52,358.31,259,392,259,392Z" transform="translate(-7.34 -23.75)"/></g><path class="cls-12" d="M406,222.82h34.47l1.45-3.32a3.59,3.59,0,0,1,3.16-2.16c15.66-.56,108.65-3.73,146.21-.1a3.34,3.34,0,0,1,2.66,1.81l2.63,5.15h25.48s-4.43-8.86-12.74-10.52c0,0-110.12-7.85-192.86,1.75C416.48,215.43,411.13,216.86,406,222.82Z" transform="translate(-7.34 -23.75)"/><path class="cls-13" d="M150.93,393a49.63,49.63,0,1,1,49.64,49.65A49.63,49.63,0,0,1,150.93,393Z" transform="translate(-7.34 -23.75)"/><path class="cls-14" d="M150.93,393a49.63,49.63,0,1,0,49.63-49.64A49.62,49.62,0,0,0,150.93,393Zm7.24,17.89A45.81,45.81,0,1,1,168,425.5,45.8,45.8,0,0,1,158.17,410.89Z" transform="translate(-7.34 -23.75)"/><path class="cls-14" d="M161.84,393a38.72,38.72,0,1,0,38.72-38.73A38.72,38.72,0,0,0,161.84,393Zm5,0a33.5,33.5,0,1,1,33.59,33.41A33.66,33.66,0,0,1,166.85,393Z" transform="translate(-7.34 -23.75)"/><path class="cls-15" d="M200.44,358.48h.09a34.47,34.47,0,1,1-.09,0Z" transform="translate(-7.34 -23.75)"/><path class="cls-13" d="M200.48,362.19h.08a30.76,30.76,0,1,1-.08,0Z" transform="translate(-7.34 -23.75)"/><path class="cls-16" d="M180.8,396.19a19.73,19.73,0,0,0,1,3.86l-9.53,5.51,3.25,5.6,9.53-5.51a19.85,19.85,0,0,0,2.83,2.82L182.39,418l5.61,3.23,5.49-9.54a20.57,20.57,0,0,0,3.85,1v11h6.47v-11a20.47,20.47,0,0,0,3.86-1l5.53,9.54,5.59-3.23-5.53-9.55a19.71,19.71,0,0,0,2.81-2.82l9.56,5.51,3.22-5.6-9.56-5.51a19.05,19.05,0,0,0,1-3.86h11v-6.46h-11a19.73,19.73,0,0,0-1-3.86l9.53-5.51-3.25-5.6L216,380.3a21,21,0,0,0-2.83-2.82l5.49-9.55-5.61-3.23-5.49,9.54a20.47,20.47,0,0,0-3.86-1v-11h-6.45v11a20.57,20.57,0,0,0-3.85,1l-5.53-9.54-5.59,3.23,5.53,9.55A19.71,19.71,0,0,0,185,380.3l-9.58-5.51-3.22,5.6,9.55,5.51a20.47,20.47,0,0,0-1,3.86h-11v6.46Z" transform="translate(-7.34 -23.75)"/><path class="cls-13" d="M200.54,383.57h0a9.42,9.42,0,1,1-9.42,9.42A9.42,9.42,0,0,1,200.56,383.57Z" transform="translate(-7.34 -23.75)"/><path class="cls-15" d="M185.62,393v0a15,15,0,1,1,14.94,15A14.95,14.95,0,0,1,185.62,393Zm1.61,0a13.33,13.33,0,1,0,13.33-13.34A13.32,13.32,0,0,0,187.23,393Z" transform="translate(-7.34 -23.75)"/><path class="cls-17" d="M200.55,387.52h0a5.47,5.47,0,1,1-5.47,5.47A5.47,5.47,0,0,1,200.56,387.52Z" transform="translate(-7.34 -23.75)"/><path class="cls-15" d="M181,393h0a19.6,19.6,0,1,0,19.59-19.61A19.59,19.59,0,0,0,181,393Zm2.53.05A17.06,17.06,0,0,1,212.62,381l.09.09a17,17,0,0,1-.09,24,17.32,17.32,0,0,1-5.42,3.65A17.07,17.07,0,0,1,183.5,393Z" transform="translate(-7.34 -23.75)"/><path class="cls-15" d="M167.18,393v.08a33.42,33.42,0,1,0,0-.08Zm33.46,30.24h-.26a30.29,30.29,0,1,1,.26,0Z" transform="translate(-7.34 -23.75)"/><path class="cls-15" d="M180.8,396.19a19.73,19.73,0,0,0,1,3.86l-9.53,5.51,3.25,5.6,9.53-5.51a19.85,19.85,0,0,0,2.83,2.82L182.39,418l5.61,3.23,5.49-9.54a20.57,20.57,0,0,0,3.85,1v11h6.47v-11a20.47,20.47,0,0,0,3.86-1l5.53,9.54,5.59-3.23-5.53-9.55a19.71,19.71,0,0,0,2.81-2.82l9.56,5.51,3.22-5.6-9.56-5.51a19.05,19.05,0,0,0,1-3.86h11v-6.46h-11a19.73,19.73,0,0,0-1-3.86l9.53-5.51-3.25-5.6L216,380.3a21,21,0,0,0-2.83-2.82l5.49-9.55-5.61-3.23-5.49,9.54a20.47,20.47,0,0,0-3.86-1v-11h-6.45v11a20.57,20.57,0,0,0-3.85,1l-5.53-9.54-5.59,3.23,5.53,9.55A19.71,19.71,0,0,0,185,380.3l-9.58-5.51-3.22,5.6,9.55,5.51a20.47,20.47,0,0,0-1,3.86h-11v6.46Zm3,4.57-.44-1.24a18.38,18.38,0,0,1-1-3.55l-.22-1.35H171.4v-3.24h10.78l.22-1.36a17.27,17.27,0,0,1,.94-3.54l.48-1.28-1.19-.69-8.16-4.7,1.61-2.81,8.16,4.71,1.19.68.87-1.06a17.55,17.55,0,0,1,2.58-2.59l1.06-.87-.68-1.19-4.73-8.15,2.8-1.62,4.73,8.15.68,1.19,1.28-.49a19.27,19.27,0,0,1,3.5-.95l1.36-.22V363.81h3.24V374.6l1.36.22a18.12,18.12,0,0,1,3.54.94l1.27.48.68-1.19,4.68-8.14,2.82,1.62-4.69,8.15-.68,1.18,1.06.87a18.72,18.72,0,0,1,2.6,2.59l.87,1.06,1.19-.68L225,377l1.63,2.81-8.13,4.7-1.19.69.49,1.29a18.09,18.09,0,0,1,1,3.54l.22,1.35h10.78v3.24H218.92L218.7,396a17.94,17.94,0,0,1-.94,3.54l-.48,1.28,1.19.69,8.16,4.7L225,409l-8.12-4.71-1.19-.68-.87,1.06a17.62,17.62,0,0,1-2.59,2.59l-1.06.87.69,1.19,4.73,8.15-2.8,1.62-4.73-8.15-.69-1.19-1.28.49a18.88,18.88,0,0,1-3.54.95l-1.35.22v10.78H199V411.4l-1.35-.22a18.88,18.88,0,0,1-3.54-.95l-1.29-.49-.68,1.19-4.69,8.15-2.81-1.62,4.69-8.15.68-1.19-1.06-.87a18.19,18.19,0,0,1-2.6-2.59l-.87-1.06-1.19.68L176.13,409l-1.63-2.81,8.14-4.7Z" transform="translate(-7.34 -23.75)"/><path class="cls-13" d="M512.83,393a49.63,49.63,0,1,1,49.64,49.66A49.61,49.61,0,0,1,512.83,393Z" transform="translate(-7.34 -23.75)"/><path class="cls-14" d="M512.83,393h0a49.63,49.63,0,1,0,49.62-49.64A49.62,49.62,0,0,0,512.83,393Zm17.11,32.5a45.81,45.81,0,1,1,64.78-.09,45.88,45.88,0,0,1-64.78.09Z" transform="translate(-7.34 -23.75)"/><path class="cls-14" d="M523.73,393a38.72,38.72,0,1,0,38.72-38.73A38.72,38.72,0,0,0,523.73,393Zm5,0a33.61,33.61,0,1,1,33.66,33.56A33.45,33.45,0,0,1,528.74,393Z" transform="translate(-7.34 -23.75)"/><path class="cls-15" d="M562.37,358.48h.09a34.47,34.47,0,1,1-.09,0Z" transform="translate(-7.34 -23.75)"/><path class="cls-13" d="M562.38,362.19h.07a30.77,30.77,0,1,1-.07,0Z" transform="translate(-7.34 -23.75)"/><path class="cls-16" d="M542.69,396.19a19.73,19.73,0,0,0,1,3.86l-9.53,5.51,3.25,5.6,9.53-5.51a20.38,20.38,0,0,0,2.83,2.82L544.28,418l5.61,3.23,5.49-9.54a20.47,20.47,0,0,0,3.86,1v11h6.46v-11a20.57,20.57,0,0,0,3.85-1l5.53,9.54,5.6-3.23-5.54-9.55a20.31,20.31,0,0,0,2.82-2.82l9.56,5.51,3.22-5.6-9.56-5.51a19.73,19.73,0,0,0,1-3.86h11v-6.46h-11a19.73,19.73,0,0,0-1-3.86l9.53-5.51-3.24-5.6L578,380.3a19.35,19.35,0,0,0-2.83-2.82l5.49-9.55L575,364.7l-5.55,9.54a21.26,21.26,0,0,0-3.86-1v-11h-6.47v11a20.57,20.57,0,0,0-3.85,1l-5.54-9.54-5.59,3.23,5.54,9.55a19.78,19.78,0,0,0-2.82,2.82l-9.56-5.51-3.22,5.6,9.56,5.51a19.73,19.73,0,0,0-1,3.86h-11v6.46Z" transform="translate(-7.34 -23.75)"/><path class="cls-13" d="M562.41,383.57h0A9.42,9.42,0,1,1,553,393,9.42,9.42,0,0,1,562.44,383.57Z" transform="translate(-7.34 -23.75)"/><path class="cls-15" d="M547.51,393v0a15,15,0,1,1,14.94,15A14.95,14.95,0,0,1,547.51,393Zm1.62,0a13.33,13.33,0,1,0,13.32-13.34A13.33,13.33,0,0,0,549.13,393Z" transform="translate(-7.34 -23.75)"/><path class="cls-17" d="M562.48,387.52h0A5.47,5.47,0,1,1,557,393,5.47,5.47,0,0,1,562.49,387.52Z" transform="translate(-7.34 -23.75)"/><path class="cls-15" d="M542.86,393h0a19.6,19.6,0,1,0,19.59-19.61A19.59,19.59,0,0,0,542.86,393Zm2.54,0a17.07,17.07,0,0,1,5-12.07,17.32,17.32,0,0,1,5.42-3.65,17.06,17.06,0,1,1,0,31.43,17.32,17.32,0,0,1-5.42-3.65,17.06,17.06,0,0,1-5-12.06Z" transform="translate(-7.34 -23.75)"/><path class="cls-15" d="M529,393v0a33.38,33.38,0,1,0,33.35-33.41A33.37,33.37,0,0,0,529,393Zm33.51,30.24h-.28a30.3,30.3,0,1,1,.28,0Z" transform="translate(-7.34 -23.75)"/><path class="cls-15" d="M542.69,396.19a19.73,19.73,0,0,0,1,3.86l-9.53,5.51,3.25,5.6,9.53-5.51a20.38,20.38,0,0,0,2.83,2.82L544.28,418l5.61,3.23,5.49-9.54a20.47,20.47,0,0,0,3.86,1v11h6.46v-11a20.57,20.57,0,0,0,3.85-1l5.53,9.54,5.6-3.23-5.54-9.55a20.31,20.31,0,0,0,2.82-2.82l9.56,5.51,3.22-5.6-9.56-5.51a19.73,19.73,0,0,0,1-3.86h11v-6.46h-11a19.73,19.73,0,0,0-1-3.86l9.53-5.51-3.24-5.6L578,380.3a19.35,19.35,0,0,0-2.83-2.82l5.49-9.55L575,364.7l-5.55,9.54a20.47,20.47,0,0,0-3.86-1v-11h-6.47v11a20.57,20.57,0,0,0-3.85,1l-5.54-9.54-5.59,3.23,5.54,9.55a19.78,19.78,0,0,0-2.82,2.82l-9.56-5.51-3.22,5.6,9.56,5.51a19.73,19.73,0,0,0-1,3.86h-11v6.46Zm3,4.57-.52-1.25a18.25,18.25,0,0,1-1-3.55l-.23-1.35H533.21v-3.24H544l.22-1.36a18.12,18.12,0,0,1,.94-3.54l.48-1.28-1.19-.69-8.16-4.7L537.9,377l8.16,4.71,1.18.68.87-1.06a17.62,17.62,0,0,1,2.59-2.59l1.06-.87-.69-1.19-4.72-8.15,2.8-1.62,4.72,8.15.69,1.19,1.28-.49a18.88,18.88,0,0,1,3.54-.95l1.36-.22V363.8H564v10.79l1.35.22a18.22,18.22,0,0,1,3.55.94l1.28.49.69-1.19,4.68-8.14,2.81,1.62-4.68,8.15-.69,1.18,1.06.87a18.79,18.79,0,0,1,2.61,2.59l.87,1.06,1.18-.68,8.14-4.71,1.63,2.81-8.13,4.7-1.19.69.49,1.29a19,19,0,0,1,1,3.54l.23,1.35h10.78v3.24H580.87l-.21,1.36a18.86,18.86,0,0,1-.94,3.54l-.48,1.28,1.18.69,8.16,4.7L587,409l-8.16-4.71-1.19-.68-.86,1.06a18.65,18.65,0,0,1-2.59,2.59l-1.06.87.69,1.19,4.72,8.15-2.8,1.62L571,410.93l-.69-1.19-1.28.49a18.88,18.88,0,0,1-3.54.95l-1.36.22v10.78h-3.24V411.4l-1.35-.22a19,19,0,0,1-3.55-.95l-1.28-.49-.69,1.19-4.7,8.15-2.81-1.62,4.68-8.15.69-1.19-1.07-.87a18.72,18.72,0,0,1-2.6-2.59l-.87-1.06-1.18.68L538,409l-1.62-2.81,8.13-4.7Z" transform="translate(-7.34 -23.75)"/><path class="cls-18" d="M562.79,283.66c-7,0-11.08-6.19-11.08-6.19l-25.49-42.29c-4.09-6.84,2-8.31,2-8.31,22.17.27,98.35,1.94,98.35,1.94,15,15.23,30.2,54.85,30.2,54.85Z" transform="translate(-7.34 -23.75)"/><path class="cls-18" d="M515.91,274.55a7.31,7.31,0,0,1-.59,2c-1.45,3-5,5.82-7.25,8.31-3.51,3.88-9.05,4.43-9.05,4.43s-183.75,9.77-202.4,6.81-7.2-19.21-7.2-19.21L326,246.69c12.37-10.43,32.14-13.76,32.14-13.76,42.8-5.09,131.86-6.09,131.86-6.09a10.43,10.43,0,0,1,9.24,5c0,.55,1.32,1.95,1.64,2.45.61,1,1.19,2,1.75,3a174.16,174.16,0,0,1,9.27,20.29,90.28,90.28,0,0,1,3.39,9A18.38,18.38,0,0,1,515.91,274.55Z" transform="translate(-7.34 -23.75)"/><path class="cls-18" d="M243.59,284.86l11,.61a6.18,6.18,0,0,0,4.16-1.31c30.4-23.66,61.23-43.3,69.4-48.42a1.16,1.16,0,0,0,.49-.62,1.18,1.18,0,0,0-.74-1.48l-3.24-1.1C282.63,257.16,243.59,284.86,243.59,284.86Z" transform="translate(-7.34 -23.75)"/><path class="cls-19" d="M270.86,378.13l5.27,18.56H500.4l3.62-9.33A231.22,231.22,0,0,1,514.75,343c2.35-6.85,10.57-11.11,20-13.76C533.61,311.12,531,287,531,287c-5.57-29.92-25.79-64.59-25.79-64.59l-134.73,3c-28.48,2.77-43.8,13.48-43.8,13.48l-49.38,37.25a15.4,15.4,0,0,0-5.46,7.8l-1,3.34C259.78,328.26,270.86,378.13,270.86,378.13Zm1.08-.27a243.11,243.11,0,0,1-4.09-29.92c-1.26-15.94-1.56-39.37,4.12-60.37l1.09-3.57a13.54,13.54,0,0,1,4.79-6.84l49.57-37.39c.53-.36,15.79-10.6,43.18-13.27l134-2.94c2.61,4.58,20.23,36.27,25.3,63.58.12,1.13,2.53,23.85,3.66,41.32-11.08,3.21-17.76,8-19.86,14.21A234.6,234.6,0,0,0,503,387.08l-3.3,8.5H276.94l-5-17.72Z" transform="translate(-7.34 -23.75)"/><path class="cls-20" d="M254.1,299.82l-26,1.48c-3.13,0-3.41,1.84-3.41,1.84.37,5,6.42,8.71,6.42,8.71l24.31-.14c2.21-2.68,1.31-10.78,1.31-10.78C256.64,300.17,254.1,299.82,254.1,299.82Z" transform="translate(-7.34 -23.75)"/><path class="cls-21" d="M658.66,337.66H674.5a216.84,216.84,0,0,0,0-54H656.77C659.31,295.65,658.66,337.66,658.66,337.66Z" transform="translate(-7.34 -23.75)"/><path class="cls-22" d="M149.81,352.88h-52v.31a12.42,12.42,0,0,0-3.51,3.88l.2,7.17h52.32C148,359,149.14,355.09,149.81,352.88Z" transform="translate(-7.34 -23.75)"/><path class="cls-23" d="M98.82,380.16,102.15,393l13.23-2.31h0a1.87,1.87,0,0,0,1.5-2.18l-1.26-6.9a1.76,1.76,0,0,0-1.73-1.44Z" transform="translate(-7.34 -23.75)"/><path class="cls-23" d="M114.05,352.88s-.32-15.51,3.85-38.17a2.12,2.12,0,0,0,0-.71,2.08,2.08,0,0,0-2.38-1.71c-1.56.27-5.14.65-7.44,1.18-7.87,13.11-10,36.47-10.26,39.41Z" transform="translate(-7.34 -23.75)"/><path class="cls-24" d="M114.05,352.88s-.32-15.51,3.85-38.17a2.12,2.12,0,0,0,0-.71,2.08,2.08,0,0,0-2.38-1.71l-.55.1c-1.51,4.76-7.35,24-8.22,40.49Z" transform="translate(-7.34 -23.75)"/><path class="cls-25" d="M97.91,351.77c0,.48-.1.87-.1,1.1H114s-.32-15.51,3.85-38.17a2,2,0,0,0,0-.34,2.07,2.07,0,0,0-2-2.11h-.35c-1.56.27-5.14.65-7.44,1.18-.25.41-.49.83-.73,1.27l1.44-.3c1.77-.39,5.1-.75,6.92-1h.16a.93.93,0,0,1,.72.35,1,1,0,0,1,.21.79,224.16,224.16,0,0,0-3.88,37.27h-15Z" transform="translate(-7.34 -23.75)"/><path class="cls-26" d="M106.51,407.44a1.73,1.73,0,0,0,1.71,1.73h33.94l-.14-4.63H107.14l-.58,2.52A2.32,2.32,0,0,0,106.51,407.44Z" transform="translate(-7.34 -23.75)"/><path class="cls-19" d="M658.64,337.7h5.16s.46-30.82-1-47.21h0s-.15-5,3-5h8.91l-.21-1.83H656.77C659.31,295.65,658.64,337.7,658.64,337.7Z" transform="translate(-7.34 -23.75)"/><path class="cls-27" d="M621.7,391.66c17.91-2,56.12-10.2,56.12-10.2,8-2.58,10.66-13.53,11.53-19l-71.2,5A229.82,229.82,0,0,1,621.7,391.66Z" transform="translate(-7.34 -23.75)"/><path class="cls-22" d="M143.7,348.71c2-6,6.32-11.06,11.6-14.81C167,325.57,182.74,322,197,321a111.48,111.48,0,0,1,30.49,2.23c8.87,1.9,17.69,5.75,23.94,12.3a35.14,35.14,0,0,1,8.17,12.62c1.81,5.06,3.81,9.69,4.81,14.87h0c.76-20.57-11-41-31.17-48.45-16-5.92-34.15-6.43-50.78-2.56-15.69,3.66-35.07,11.73-40.15,27.83a80.42,80.42,0,0,0-2.94,13h3Z" transform="translate(-7.34 -23.75)"/><g class="cls-28"><path class="cls-11" d="M526.2,235.18l25.49,42.29s4.08,6.19,11.08,6.19h94s-15.2-39.62-30.2-54.85c0,0-76.18-1.67-98.35-1.94C528.22,226.87,522.13,228.34,526.2,235.18Zm1.72-1c-1-1.65-1.33-3-1-3.92a2.69,2.69,0,0,1,1.57-1.33c21,.27,88.86,1.73,97.18,1.91,12.09,12.84,24.42,41.84,28.09,50.84h-91c-5.6,0-9.11-4.86-9.38-5.26l-25.46-42.24Z" transform="translate(-7.34 -23.75)"/><path class="cls-11" d="M296.65,296.18a128.69,128.69,0,0,0,15.08.55c48.61,0,187.34-7.39,187.34-7.39s5.54-.55,9.05-4.43c2.25-2.49,5.8-5.31,7.25-8.31a7.31,7.31,0,0,0,.59-2,18.29,18.29,0,0,0-.65-8,90.28,90.28,0,0,0-3.39-9,174.16,174.16,0,0,0-9.27-20.29c-.56-1-1.14-2-1.75-3-.32-.45-1.64-1.9-1.64-2.45a10.43,10.43,0,0,0-9.24-5s-89.06,1-131.86,6.09c0,0-19.77,3.33-32.14,13.76l-36.6,30.16S278,293.17,296.65,296.18Zm-8.21-6.84c-1.57-3.72,1.13-9,2.46-11.06l36.35-30c11.54-9.74,30.15-13.14,31.15-13.32,42.07-5,130.08-6.08,131.58-6.08a8.55,8.55,0,0,1,7.33,3.71,7.47,7.47,0,0,0,1.45,2.3c.14.17.33.41.38.49.53.9,1.09,1.8,1.7,2.9A171.09,171.09,0,0,1,510,258.34c.28.72.58,1.44.89,2.17a60.15,60.15,0,0,1,2.43,6.61,16,16,0,0,1,.6,7.08,5.81,5.81,0,0,1-.41,1.48c-.87,1.81-2.76,3.66-4.58,5.44-.84.82-1.64,1.6-2.35,2.39a13.35,13.35,0,0,1-7.73,3.77c-3.57.19-139.56,7.39-187.17,7.39-7.57,0-12.54-.18-14.76-.54-4.6-.73-7.5-2.34-8.5-4.79Z" transform="translate(-7.34 -23.75)"/></g><path class="cls-29" d="M392,300.34c5.82-.26,10.71,3.06,10.9,7.48s-4.37,8.16-10.19,8.42-10.7-3.09-10.89-7.48S386.2,300.6,392,300.34Z" transform="translate(-7.34 -23.75)"/><path class="cls-15" d="M376.69,307.65l.1,2.31a1.8,1.8,0,0,0,1.89,1.72l28.2-1.26a1.81,1.81,0,0,0,1.72-1.88l-.1-2.31a1.82,1.82,0,0,0-1.89-1.73l-28.2,1.26A1.8,1.8,0,0,0,376.69,307.65Z" transform="translate(-7.34 -23.75)"/><path class="cls-29" d="M376.75,308.94v1a1.8,1.8,0,0,0,1.89,1.72l28.2-1.26a1.81,1.81,0,0,0,1.72-1.88v-1Z" transform="translate(-7.34 -23.75)"/><rect class="cls-29" x="402.24" y="304.63" width="0.66" height="5.92" transform="translate(-20.57 -5.61) rotate(-2.54)"/><path class="cls-26" d="M405.37,306.12h0A1.42,1.42,0,1,1,404,307.6,1.43,1.43,0,0,1,405.38,306.12Z" transform="translate(-7.34 -23.75)"/><path class="cls-29" d="M499.51,295.48c5.83-.26,10.7,3,10.9,7.48s-4.35,8.17-10.18,8.43-10.7-3.09-10.9-7.48S493.68,295.74,499.51,295.48Z" transform="translate(-7.34 -23.75)"/><path class="cls-15" d="M484.18,302.79l.11,2.31h0a1.79,1.79,0,0,0,1.88,1.72l28.2-1.26a1.82,1.82,0,0,0,1.73-1.89l-.11-2.31v0a1.79,1.79,0,0,0-1.88-1.7l-28.2,1.26A1.8,1.8,0,0,0,484.18,302.79Z" transform="translate(-7.34 -23.75)"/><path class="cls-29" d="M484.26,304.18v1h0a1.79,1.79,0,0,0,1.88,1.72l28.2-1.26a1.82,1.82,0,0,0,1.73-1.89l-.05-1Z" transform="translate(-7.34 -23.75)"/><rect class="cls-29" x="509.75" y="299.83" width="0.66" height="5.92" transform="translate(-20.5 -0.39) rotate(-2.59)"/><path class="cls-26" d="M512.86,301.28h0a1.42,1.42,0,1,1-1.36,1.48A1.43,1.43,0,0,1,512.87,301.28Z" transform="translate(-7.34 -23.75)"/><path class="cls-22" d="M674.5,337.66H605.83a36.71,36.71,0,0,1,3.47,4c14.55-.35,49.55-.71,78.83,2.71C683.9,338.64,674.5,337.66,674.5,337.66Z" transform="translate(-7.34 -23.75)"/><path class="cls-22" d="M499.66,361.23l4.94-15.63c2-6.06,6.31-11.06,11.6-14.81,11.72-8.33,27.43-12,41.72-12.86a111.66,111.66,0,0,1,30.46,2.24c8.87,1.91,17.69,5.76,23.94,12.3a46.16,46.16,0,0,1,4.28,5.18h4.54a47.39,47.39,0,0,0-27-26.16c-16-5.92-34.14-6.43-50.77-2.56-15.69,3.65-35.08,11.73-40.15,27.83C498.82,350.76,499.66,361.23,499.66,361.23Z" transform="translate(-7.34 -23.75)"/><polygon class="cls-27" points="491.65 376.57 253.02 378.63 253.82 384.48 490.59 379.31 491.65 376.57"/><path class="cls-27" d="M256.23,374c1.9,10,2.72,18,2.72,18l2.21,16.25,236.77-5.17,6.1-15.7c.74-5.62,1.73-11.09,2.81-16.09Z" transform="translate(-7.34 -23.75)"/><path class="cls-27" d="M107.12,404.54H142a204.56,204.56,0,0,1,2.28-27H94.93a3.7,3.7,0,0,0,1.87,2.56h2L102.13,393l-1,4C102.79,400.76,107.12,404.54,107.12,404.54Z" transform="translate(-7.34 -23.75)"/><path class="cls-30" d="M273.26,329.34a2,2,0,0,0-1.9,2.1v.7a2,2,0,0,0,2.1,1.9L411.37,331a2.06,2.06,0,0,0,2-2.1v-.69a2,2,0,0,0-2.09-1.91l-137.92,3.08Z" transform="translate(-7.34 -23.75)"/><path class="cls-31" d="M424.51,326a2.05,2.05,0,0,0-2,2.1v.7a2,2,0,0,0,2.1,1.9l72.18-1.61h.09a2,2,0,0,0,1.91-2.09v-.61h0a2.05,2.05,0,0,0-2.1-2L424.51,326Z" transform="translate(-7.34 -23.75)"/><path class="cls-32" d="M422.55,328.92a1,1,0,0,0,0,.24v.6a2.05,2.05,0,0,0,2.09,2l72.16-1.62h.09a2,2,0,0,0,1.91-2.09v-.85a2,2,0,0,1-2,1.85l-72.18,1.61A2,2,0,0,1,422.55,328.92Z" transform="translate(-7.34 -23.75)"/><path class="cls-32" d="M271.36,332.28a1,1,0,0,0,0,.25v.6h0a2.05,2.05,0,0,0,2.1,2l137.92-3.08h.09a2,2,0,0,0,1.91-2.09v-.85a2,2,0,0,1-2,1.85L273.47,334A2,2,0,0,1,271.36,332.28Z" transform="translate(-7.34 -23.75)"/><path class="cls-33" d="M286.27,289.27c.1,4.86,6.38,10.08,6.38,10.08H302a2,2,0,0,0,2-1.64l1.64-8.44-4.2-6.32S286.17,284.41,286.27,289.27Z" transform="translate(-7.34 -23.75)"/><path class="cls-12" d="M310.64,291.4c-4.71,1.77-14.5,1.33-14.5,1.33-2.69-.07-3.48-4-3.48-4a51.58,51.58,0,0,1,7.4-16.21c3.66-4.12,13.4-4.24,13.4-4.24,4.35.45,4.35,2.88,4.35,2.88l-1.54,14.94C316,289.07,310.64,291.42,310.64,291.4Z" transform="translate(-7.34 -23.75)"/><path class="cls-22" d="M300.06,272.58a51.58,51.58,0,0,0-7.4,16.21s.79,3.91,3.48,4h3.14c3.46-11.88,12.27-21.33,15.32-24.33a9,9,0,0,0-1.14-.18S303.72,268.4,300.06,272.58Z" transform="translate(-7.34 -23.75)"/><path class="cls-34" d="M99.87,338.13a100.21,100.21,0,0,1,17.8-24.84,2,2,0,0,0-2.14-1c-1.56.27-5.14.65-7.44,1.18C104,320.36,101.4,330.07,99.87,338.13Z" transform="translate(-7.34 -23.75)"/><path class="cls-35" d="M108.77,312.37c38.72-8.49,95-13.49,110.64-15.69,17.64-2.48,24.21-11.82,24.21-11.82h0A801,801,0,0,0,133.77,300.7c-18,4.15-24,10.25-24,10.25C109.43,311.4,109.09,311.88,108.77,312.37Z" transform="translate(-7.34 -23.75)"/><path class="cls-23" d="M676,319h-5.15a2.83,2.83,0,0,0-2.82,2.83v3a2.83,2.83,0,0,0,2.82,2.83h4.7C675.8,324.76,676,321.84,676,319Z" transform="translate(-7.34 -23.75)"/><path class="cls-23" d="M675.5,293.19h-4.62a2.82,2.82,0,0,0-2.82,2.82v3h0a2.82,2.82,0,0,0,2.82,2.82H676C675.88,298.59,675.69,295.67,675.5,293.19Z" transform="translate(-7.34 -23.75)"/><g class="cls-36"><polygon class="cls-37" points="343.68 188.7 393.38 295.28 437.93 295.28 388.23 188.7 343.68 188.7"/><polygon class="cls-37" points="441.45 188.7 491.15 295.28 507.03 295.28 457.33 188.7 441.45 188.7"/><polygon class="cls-37" points="295.49 188.7 345.19 295.28 371.43 295.28 321.72 188.7 295.49 188.7"/><polygon class="cls-37" points="414.3 188.7 464 295.28 474.24 295.28 424.54 188.7 414.3 188.7"/><polygon class="cls-37" points="403.92 188.7 453.62 295.28 460.22 295.28 410.52 188.7 403.92 188.7"/></g><path class="cls-20" d="M401.37,229.6c1.08,9.12,4.08,39.38,2.08,64.28l24.95-1.11c-1-17.4-3.26-50.2-5.68-64.15C415.64,228.9,408.44,229.22,401.37,229.6Z" transform="translate(-7.34 -23.75)"/><path class="cls-19" d="M414.39,395.53l1,.1c7.41-78.1-2.62-169.19-2.72-170.1l-1,.11C411.77,226.55,421.79,317.53,414.39,395.53Z" transform="translate(-7.34 -23.75)"/><g class="cls-38"><polygon class="cls-37" points="521.29 191.24 563.38 281.48 601.1 281.48 559.01 191.24 521.29 191.24"/><polygon class="cls-37" points="604.08 191.24 646.16 281.48 659.61 281.48 617.53 191.24 604.08 191.24"/><polygon class="cls-37" points="480.5 191.24 522.58 281.48 544.79 281.48 502.71 191.24 480.5 191.24"/><polygon class="cls-37" points="581.09 191.24 623.17 281.48 631.84 281.48 589.76 191.24 581.09 191.24"/><polygon class="cls-37" points="572.3 191.24 614.38 281.48 619.97 281.48 577.89 191.24 572.3 191.24"/></g></g><line class="cls-5" x1="7.69" y1="419.23" x2="729.97" y2="419.23"/></g><g id="Plants"><path class="cls-7" d="M664.4,427.57A27.33,27.33,0,0,0,645.8,443h.47a26.88,26.88,0,0,1,18.23-15,.22.22,0,0,0,.16-.26A.23.23,0,0,0,664.4,427.57Z" transform="translate(-7.34 -23.75)"/><path class="cls-7" d="M652.1,440.11c-2-1.68-5.24,1.1-5.19,1.2-.22.39-.44.79-.65,1.2.44-.42,1.92-.65,3.85-.22S654.09,441.64,652.1,440.11Z" transform="translate(-7.34 -23.75)"/><path class="cls-7" d="M646,435.54c-2-1.57-3,1.84-1.71,3.44s1.93,2.91,1.9,3.51c.19-.42.38-.83.58-1.24C646.7,441.24,647.91,437.1,646,435.54Z" transform="translate(-7.34 -23.75)"/><path class="cls-7" d="M654.7,437.2c-1.72-2-5.32.18-5.29.28-.28.34-.56.69-.83,1,.5-.33,2-.29,3.81.46S656.41,439,654.7,437.2Z" transform="translate(-7.34 -23.75)"/><path class="cls-7" d="M649.48,431.68c-1.75-1.9-3.29,1.28-2.24,3.06s1.43,3.18,1.31,3.76c.24-.37.5-.74.76-1.1C649.21,437.37,651.08,433.53,649.48,431.68Z" transform="translate(-7.34 -23.75)"/><path class="cls-7" d="M657.74,434.78c-1.36-2.25-5.27-.72-5.25-.62-.33.28-.67.58-1,.88.55-.23,2,.06,3.67,1.12S659.12,436.88,657.74,434.78Z" transform="translate(-7.34 -23.75)"/><path class="cls-7" d="M653.52,428.46c-1.41-2.16-3.45.71-2.71,2.64s.88,3.37.66,3.91l.93-.95C652.31,434,654.78,430.56,653.52,428.46Z" transform="translate(-7.34 -23.75)"/><path class="cls-7" d="M661.15,432.89c-1-2.44-5.08-1.58-5.08-1.48-.38.22-.75.46-1.12.7.57-.13,2,.39,3.43,1.72S662.15,435.2,661.15,432.89Z" transform="translate(-7.34 -23.75)"/><path class="cls-7" d="M658.05,426c-1-2.37-3.54.12-3.13,2.15s.31,3.47,0,4c.35-.27.71-.53,1.07-.78C655.91,431.25,658.93,428.24,658.05,426Z" transform="translate(-7.34 -23.75)"/><path class="cls-7" d="M664.86,431.6c-.55-2.57-4.78-2.41-4.79-2.31q-.63.24-1.23.51c.59,0,1.87.71,3.1,2.26S665.45,434,664.86,431.6Z" transform="translate(-7.34 -23.75)"/><path class="cls-7" d="M663,424.24c-.62-2.51-3.54-.46-3.48,1.61s-.28,3.47-.67,3.92q.58-.31,1.2-.6C659.93,429.1,663.45,426.64,663,424.24Z" transform="translate(-7.34 -23.75)"/><path class="cls-7" d="M662.47,428.32a15.61,15.61,0,0,1,5.21-2.52c2-.4,2.81,1,2.47,1.87s-1.75,1.07-3,1A47.17,47.17,0,0,0,662.47,428.32Z" transform="translate(-7.34 -23.75)"/><path class="cls-7" d="M662.42,428.45h0a.15.15,0,0,1-.07-.15v0a.11.11,0,0,1,.07-.08,15.39,15.39,0,0,1,5.26-2.54,2.36,2.36,0,0,1,2.34.63,1.48,1.48,0,0,1,.28,1.45c-.43,1.15-2.48,1.12-3.1,1.08-1.16-.16-4.36-.38-4.66-.36Zm6.75-2.43a2.49,2.49,0,0,0-1.46-.08,15.28,15.28,0,0,0-4.81,2.23l1.5.09c.94.07,2.17.18,2.81.27,1.16.06,2.51-.14,2.81-.91a1.18,1.18,0,0,0-.24-1.16A1.55,1.55,0,0,0,669.17,426Z" transform="translate(-7.34 -23.75)"/><path class="cls-7" d="M644,443a26.9,26.9,0,0,1,1.32-23.82.22.22,0,0,0-.38-.21,27.36,27.36,0,0,0-1.41,24Z" transform="translate(-7.34 -23.75)"/><path class="cls-7" d="M645.74,436.49c-2.61.35-2.76,4.59-2.65,4.62.13.43.27.87.43,1.29,0-.6.83-1.84,2.46-3S648.21,436.07,645.74,436.49Z" transform="translate(-7.34 -23.75)"/><path class="cls-7" d="M638.26,437.83c-2.55.43-.73,3.49,1.35,3.59s3.45.57,3.87,1c-.18-.42-.35-.84-.51-1.27C642.89,441.22,640.68,437.51,638.26,437.83Z" transform="translate(-7.34 -23.75)"/><path class="cls-7" d="M645.38,432.6c-2.63-.09-3.49,4-3.4,4.07.06.44.12.89.2,1.33.11-.59,1.14-1.66,2.94-2.48S647.89,432.61,645.38,432.6Z" transform="translate(-7.34 -23.75)"/><path class="cls-7" d="M637.78,432.67c-2.58,0-1.3,3.29.72,3.73s3.3,1.12,3.64,1.6c-.1-.43-.2-.87-.29-1.31C641.77,436.75,640.23,432.77,637.78,432.67Z" transform="translate(-7.34 -23.75)"/><path class="cls-7" d="M645.67,428.73c-2.57-.53-4.11,3.37-4,3.42,0,.45,0,.89,0,1.33.2-.55,1.4-1.42,3.31-1.93S648.14,429.15,645.67,428.73Z" transform="translate(-7.34 -23.75)"/><path class="cls-7" d="M638.17,427.52c-2.55-.43-1.83,3,.09,3.79s3.07,1.64,3.32,2.17c0-.44-.06-.88-.07-1.33C641.42,432.2,640.56,428,638.17,427.52Z" transform="translate(-7.34 -23.75)"/><path class="cls-7" d="M646.61,425c-2.45-.95-4.62,2.65-4.55,2.71-.09.43-.17.87-.24,1.31.29-.52,1.62-1.17,3.59-1.35S649,425.78,646.61,425Z" transform="translate(-7.34 -23.75)"/><path class="cls-7" d="M639.42,422.5c-2.44-.85-2.32,2.68-.55,3.76s2.75,2.13,2.91,2.7c0-.44.09-.88.16-1.32C641.84,427.67,641.69,423.41,639.42,422.5Z" transform="translate(-7.34 -23.75)"/><path class="cls-7" d="M648.18,421.36c-2.25-1.35-5,1.86-4.95,1.93-.16.41-.32.83-.46,1.25.38-.46,1.79-.89,3.77-.74S650.38,422.58,648.18,421.36Z" transform="translate(-7.34 -23.75)"/><path class="cls-7" d="M641.51,417.73c-2.26-1.25-2.75,2.28-1.19,3.64s2.35,2.57,2.41,3.16c.12-.43.24-.86.38-1.28C643,423.26,643.59,419,641.51,417.73Z" transform="translate(-7.34 -23.75)"/><path class="cls-7" d="M644.15,420.87a16,16,0,0,1,1.7-5.53c1.1-1.76,2.67-1.35,3.06-.54s-.41,2-1.29,2.85S644.12,420.81,644.15,420.87Z" transform="translate(-7.34 -23.75)"/><path class="cls-7" d="M644.21,421h0A.16.16,0,0,1,644,421h0a.09.09,0,0,1,0-.11,15.09,15.09,0,0,1,1.71-5.57,2.34,2.34,0,0,1,2.06-1.29,1.46,1.46,0,0,1,1.25.77c.54,1.11-.87,2.58-1.32,3-.9.74-3.25,2.93-3.43,3.18A.19.19,0,0,1,644.21,421Zm2.82-6.6a2.52,2.52,0,0,0-1.06,1,15.43,15.43,0,0,0-1.63,5c.21-.21.55-.53,1.09-1,.69-.65,1.6-1.48,2.1-1.88.84-.81,1.62-1.93,1.25-2.67a1.18,1.18,0,0,0-1-.62A1.53,1.53,0,0,0,647,414.4Z" transform="translate(-7.34 -23.75)"/><path class="cls-7" d="M89.69,427.57A27.33,27.33,0,0,0,71.09,443h.47a26.9,26.9,0,0,1,18.23-15,.21.21,0,0,0,.16-.26A.23.23,0,0,0,89.69,427.57Z" transform="translate(-7.34 -23.75)"/><path class="cls-7" d="M77.4,440.11c-2-1.68-5.24,1.1-5.19,1.2q-.34.58-.66,1.2c.45-.42,1.92-.65,3.86-.22S79.39,441.64,77.4,440.11Z" transform="translate(-7.34 -23.75)"/><path class="cls-7" d="M71.32,435.54c-2-1.57-3,1.84-1.71,3.44s1.94,2.91,1.91,3.51c.18-.42.37-.83.57-1.24C72,441.24,73.21,437.1,71.32,435.54Z" transform="translate(-7.34 -23.75)"/><path class="cls-7" d="M80,437.2c-1.72-2-5.33.18-5.29.28q-.43.51-.84,1c.51-.33,2-.29,3.82.46S81.7,439,80,437.2Z" transform="translate(-7.34 -23.75)"/><path class="cls-7" d="M74.78,431.68c-1.76-1.9-3.3,1.28-2.24,3.06s1.43,3.18,1.3,3.76c.25-.37.5-.74.76-1.1C74.51,437.37,76.37,433.53,74.78,431.68Z" transform="translate(-7.34 -23.75)"/><path class="cls-7" d="M83,434.78c-1.37-2.25-5.27-.72-5.25-.62-.34.28-.67.58-1,.88.54-.23,2,.06,3.67,1.12S84.41,436.88,83,434.78Z" transform="translate(-7.34 -23.75)"/><path class="cls-7" d="M78.82,428.46c-1.42-2.16-3.46.71-2.72,2.64s.89,3.37.67,3.91c.3-.32.61-.64.93-.95C77.6,434,80.07,430.56,78.82,428.46Z" transform="translate(-7.34 -23.75)"/><path class="cls-7" d="M86.44,432.89c-1-2.44-5.08-1.58-5.07-1.48-.38.22-.76.46-1.13.7.58-.13,2,.39,3.43,1.72S87.44,435.2,86.44,432.89Z" transform="translate(-7.34 -23.75)"/><path class="cls-7" d="M83.34,426c-1-2.37-3.54.12-3.12,2.15s.3,3.47,0,4q.52-.4,1.08-.78C81.21,431.25,84.23,428.24,83.34,426Z" transform="translate(-7.34 -23.75)"/><path class="cls-7" d="M90.15,431.6c-.55-2.57-4.78-2.41-4.79-2.31q-.61.24-1.23.51c.59,0,1.87.71,3.11,2.26S90.75,434,90.15,431.6Z" transform="translate(-7.34 -23.75)"/><path class="cls-7" d="M88.26,424.24c-.62-2.51-3.54-.46-3.47,1.61s-.29,3.47-.67,3.92c.39-.21.79-.41,1.19-.6C85.23,429.1,88.74,426.64,88.26,424.24Z" transform="translate(-7.34 -23.75)"/><path class="cls-7" d="M87.76,428.32A15.61,15.61,0,0,1,93,425.8c2-.4,2.81,1,2.47,1.87s-1.75,1.07-3,1A47.32,47.32,0,0,0,87.76,428.32Z" transform="translate(-7.34 -23.75)"/><path class="cls-7" d="M87.71,428.45h0a.15.15,0,0,1-.07-.15v0a.11.11,0,0,1,.07-.08A15.23,15.23,0,0,1,93,425.65a2.38,2.38,0,0,1,2.35.63,1.48,1.48,0,0,1,.28,1.45c-.44,1.15-2.49,1.12-3.1,1.08-1.16-.16-4.36-.38-4.67-.36ZM94.46,426a2.49,2.49,0,0,0-1.46-.08,15.22,15.22,0,0,0-4.8,2.23l1.5.09c.94.07,2.17.18,2.81.27,1.15.06,2.51-.14,2.8-.91a1.18,1.18,0,0,0-.24-1.16A1.48,1.48,0,0,0,94.46,426Z" transform="translate(-7.34 -23.75)"/><path class="cls-7" d="M69.28,443a26.9,26.9,0,0,1,1.31-23.82.21.21,0,0,0-.08-.29.21.21,0,0,0-.29.08,27.32,27.32,0,0,0-1.41,24Z" transform="translate(-7.34 -23.75)"/><path class="cls-7" d="M71,436.49c-2.61.35-2.75,4.59-2.65,4.62.13.43.28.87.43,1.29,0-.6.84-1.84,2.47-3S73.51,436.07,71,436.49Z" transform="translate(-7.34 -23.75)"/><path class="cls-7" d="M63.55,437.83c-2.55.43-.72,3.49,1.35,3.59s3.45.57,3.88,1c-.19-.42-.36-.84-.52-1.27C68.18,441.22,66,437.51,63.55,437.83Z" transform="translate(-7.34 -23.75)"/><path class="cls-7" d="M70.67,432.6c-2.63-.09-3.49,4-3.39,4.07,0,.44.12.89.19,1.33.11-.59,1.14-1.66,2.94-2.48S73.18,432.61,70.67,432.6Z" transform="translate(-7.34 -23.75)"/><path class="cls-7" d="M63.07,432.67c-2.58,0-1.3,3.29.73,3.73s3.3,1.12,3.64,1.6c-.11-.43-.21-.87-.29-1.31C67.06,436.75,65.52,432.77,63.07,432.67Z" transform="translate(-7.34 -23.75)"/><path class="cls-7" d="M71,428.73c-2.58-.53-4.12,3.37-4,3.42,0,.45,0,.89,0,1.33.21-.55,1.4-1.42,3.32-1.93S73.44,429.15,71,428.73Z" transform="translate(-7.34 -23.75)"/><path class="cls-7" d="M63.46,427.52c-2.54-.43-1.83,3,.09,3.79s3.07,1.64,3.32,2.17c0-.44-.05-.88-.06-1.33C66.72,432.2,65.86,428,63.46,427.52Z" transform="translate(-7.34 -23.75)"/><path class="cls-7" d="M71.9,425c-2.45-.95-4.62,2.65-4.54,2.71-.09.43-.18.87-.25,1.31.3-.52,1.62-1.17,3.59-1.35S74.27,425.78,71.9,425Z" transform="translate(-7.34 -23.75)"/><path class="cls-7" d="M64.71,422.5c-2.44-.85-2.31,2.68-.55,3.76s2.75,2.13,2.91,2.7c.05-.44.1-.88.16-1.32C67.13,427.67,67,423.41,64.71,422.5Z" transform="translate(-7.34 -23.75)"/><path class="cls-7" d="M73.48,421.36c-2.26-1.35-5,1.86-5,1.93-.17.41-.32.83-.47,1.25.38-.46,1.8-.89,3.77-.74S75.67,422.58,73.48,421.36Z" transform="translate(-7.34 -23.75)"/><path class="cls-7" d="M66.8,417.73c-2.26-1.25-2.75,2.28-1.19,3.64S68,423.94,68,424.53c.11-.43.24-.86.38-1.28C68.3,423.26,68.89,419,66.8,417.73Z" transform="translate(-7.34 -23.75)"/><path class="cls-7" d="M69.45,420.87a15.73,15.73,0,0,1,1.7-5.53c1.09-1.76,2.67-1.35,3-.54s-.41,2-1.28,2.85S69.41,420.81,69.45,420.87Z" transform="translate(-7.34 -23.75)"/><path class="cls-7" d="M69.51,421h0a.17.17,0,0,1-.16-.06h0a.1.1,0,0,1,0-.11A15.14,15.14,0,0,1,71,415.26a2.32,2.32,0,0,1,2-1.29,1.45,1.45,0,0,1,1.25.77c.55,1.11-.87,2.58-1.31,3-.91.74-3.25,2.93-3.44,3.18A.16.16,0,0,1,69.51,421Zm2.81-6.6a2.51,2.51,0,0,0-1,1,15.48,15.48,0,0,0-1.64,5l1.09-1c.69-.65,1.61-1.48,2.11-1.88.84-.81,1.61-1.93,1.25-2.67a1.21,1.21,0,0,0-1-.62A1.55,1.55,0,0,0,72.32,414.4Z" transform="translate(-7.34 -23.75)"/><path class="cls-7" d="M407.4,427.57A27.35,27.35,0,0,0,388.79,443h.47a26.92,26.92,0,0,1,18.24-15,.22.22,0,0,0,.16-.26A.23.23,0,0,0,407.4,427.57Z" transform="translate(-7.34 -23.75)"/><path class="cls-7" d="M395.1,440.11c-2-1.68-5.24,1.1-5.19,1.2-.23.39-.44.79-.65,1.2.44-.42,1.91-.65,3.85-.22S397.09,441.64,395.1,440.11Z" transform="translate(-7.34 -23.75)"/><path class="cls-7" d="M389,435.54c-2-1.57-3,1.84-1.72,3.44s1.94,2.91,1.91,3.51c.18-.42.37-.83.58-1.24C389.69,441.24,390.91,437.1,389,435.54Z" transform="translate(-7.34 -23.75)"/><path class="cls-7" d="M397.7,437.2c-1.72-2-5.32.18-5.29.28-.29.34-.56.69-.83,1,.5-.33,2-.29,3.81.46S399.41,439,397.7,437.2Z" transform="translate(-7.34 -23.75)"/><path class="cls-7" d="M392.48,431.68c-1.75-1.9-3.29,1.28-2.24,3.06s1.43,3.18,1.3,3.76c.25-.37.5-.74.77-1.1C392.21,437.37,394.08,433.53,392.48,431.68Z" transform="translate(-7.34 -23.75)"/><path class="cls-7" d="M400.74,434.78c-1.36-2.25-5.27-.72-5.25-.62-.34.28-.67.58-1,.88.55-.23,2,.06,3.67,1.12S402.11,436.88,400.74,434.78Z" transform="translate(-7.34 -23.75)"/><path class="cls-7" d="M396.52,428.46c-1.41-2.16-3.46.71-2.71,2.64s.88,3.37.66,3.91c.3-.32.61-.64.93-.95C395.31,434,397.78,430.56,396.52,428.46Z" transform="translate(-7.34 -23.75)"/><path class="cls-7" d="M404.15,432.89c-1-2.44-5.08-1.58-5.08-1.48-.38.22-.75.46-1.12.7.57-.13,1.95.39,3.43,1.72S405.15,435.2,404.15,432.89Z" transform="translate(-7.34 -23.75)"/><path class="cls-7" d="M401.05,426c-1-2.37-3.54.12-3.13,2.15s.31,3.47,0,4c.36-.27.71-.53,1.08-.78C398.91,431.25,401.93,428.24,401.05,426Z" transform="translate(-7.34 -23.75)"/><path class="cls-7" d="M407.85,431.6c-.54-2.57-4.77-2.41-4.78-2.31q-.63.24-1.23.51c.59,0,1.87.71,3.1,2.26S408.45,434,407.85,431.6Z" transform="translate(-7.34 -23.75)"/><path class="cls-7" d="M406,424.24c-.62-2.51-3.54-.46-3.48,1.61s-.28,3.47-.67,3.92q.58-.31,1.2-.6C402.93,429.1,406.45,426.64,406,424.24Z" transform="translate(-7.34 -23.75)"/><path class="cls-7" d="M405.47,428.32a15.61,15.61,0,0,1,5.21-2.52c2-.4,2.8,1,2.47,1.87s-1.75,1.07-3,1A47.17,47.17,0,0,0,405.47,428.32Z" transform="translate(-7.34 -23.75)"/><path class="cls-7" d="M405.41,428.45h0a.13.13,0,0,1-.07-.15v0a.11.11,0,0,1,.07-.08,15.42,15.42,0,0,1,5.25-2.54,2.38,2.38,0,0,1,2.35.63,1.48,1.48,0,0,1,.28,1.45c-.44,1.15-2.48,1.12-3.1,1.08-1.16-.16-4.36-.38-4.66-.36Zm6.76-2.43a2.52,2.52,0,0,0-1.47-.08,15.22,15.22,0,0,0-4.8,2.23l1.5.09c.94.07,2.17.18,2.81.27,1.16.06,2.51-.14,2.8-.91a1.15,1.15,0,0,0-.23-1.16A1.55,1.55,0,0,0,412.17,426Z" transform="translate(-7.34 -23.75)"/><path class="cls-7" d="M387,443a26.93,26.93,0,0,1,1.31-23.82.21.21,0,0,0-.08-.29.21.21,0,0,0-.29.08,27.32,27.32,0,0,0-1.41,24Z" transform="translate(-7.34 -23.75)"/><path class="cls-7" d="M388.74,436.49c-2.61.35-2.76,4.59-2.65,4.62.13.43.27.87.43,1.29,0-.6.83-1.84,2.46-3S391.21,436.07,388.74,436.49Z" transform="translate(-7.34 -23.75)"/><path class="cls-7" d="M381.26,437.83c-2.55.43-.73,3.49,1.35,3.59s3.45.57,3.87,1c-.18-.42-.35-.84-.52-1.27C385.89,441.22,383.68,437.51,381.26,437.83Z" transform="translate(-7.34 -23.75)"/><path class="cls-7" d="M388.38,432.6c-2.63-.09-3.5,4-3.4,4.07,0,.44.12.89.2,1.33.11-.59,1.14-1.66,2.94-2.48S390.89,432.61,388.38,432.6Z" transform="translate(-7.34 -23.75)"/><path class="cls-7" d="M380.78,432.67c-2.59,0-1.31,3.29.72,3.73s3.3,1.12,3.64,1.6c-.11-.43-.2-.87-.29-1.31C384.77,436.75,383.22,432.77,380.78,432.67Z" transform="translate(-7.34 -23.75)"/><path class="cls-7" d="M388.67,428.73c-2.58-.53-4.11,3.37-4,3.42,0,.45,0,.89,0,1.33.2-.55,1.4-1.42,3.31-1.93S391.14,429.15,388.67,428.73Z" transform="translate(-7.34 -23.75)"/><path class="cls-7" d="M381.17,427.52c-2.55-.43-1.84,3,.09,3.79s3.06,1.64,3.32,2.17c0-.44-.06-.88-.07-1.33C384.42,432.2,383.56,428,381.17,427.52Z" transform="translate(-7.34 -23.75)"/><path class="cls-7" d="M389.61,425c-2.45-.95-4.62,2.65-4.55,2.71-.09.43-.17.87-.24,1.31.29-.52,1.61-1.17,3.59-1.35S392,425.78,389.61,425Z" transform="translate(-7.34 -23.75)"/><path class="cls-7" d="M382.41,422.5c-2.43-.85-2.31,2.68-.54,3.76s2.75,2.13,2.91,2.7q.06-.66.15-1.32C384.84,427.67,384.69,423.41,382.41,422.5Z" transform="translate(-7.34 -23.75)"/><path class="cls-7" d="M391.18,421.36c-2.26-1.35-5,1.86-4.95,1.93-.16.41-.32.83-.46,1.25.38-.46,1.79-.89,3.77-.74S393.37,422.58,391.18,421.36Z" transform="translate(-7.34 -23.75)"/><path class="cls-7" d="M384.5,417.73c-2.26-1.25-2.74,2.28-1.18,3.64s2.35,2.57,2.41,3.16c.12-.43.24-.86.38-1.28C386,423.26,386.59,419,384.5,417.73Z" transform="translate(-7.34 -23.75)"/><path class="cls-7" d="M387.15,420.87a15.73,15.73,0,0,1,1.7-5.53c1.09-1.76,2.67-1.35,3.06-.54s-.41,2-1.29,2.85S387.12,420.81,387.15,420.87Z" transform="translate(-7.34 -23.75)"/><path class="cls-7" d="M387.21,421h0A.17.17,0,0,1,387,421h0a.1.1,0,0,1,0-.11,15.33,15.33,0,0,1,1.72-5.57,2.34,2.34,0,0,1,2.06-1.29,1.46,1.46,0,0,1,1.25.77c.54,1.11-.87,2.58-1.32,3-.91.74-3.25,2.93-3.44,3.18A.16.16,0,0,1,387.21,421Zm2.82-6.6a2.52,2.52,0,0,0-1.06,1,15.43,15.43,0,0,0-1.63,5c.21-.21.55-.53,1.09-1,.69-.65,1.6-1.48,2.1-1.88.84-.81,1.61-1.93,1.25-2.67a1.19,1.19,0,0,0-1-.62A1.51,1.51,0,0,0,390,414.4Z" transform="translate(-7.34 -23.75)"/><path class="cls-7" d="M352.52,427.57A27.35,27.35,0,0,1,371.12,443h-.47a26.9,26.9,0,0,0-18.23-15,.21.21,0,0,1-.16-.26A.22.22,0,0,1,352.52,427.57Z" transform="translate(-7.34 -23.75)"/><path class="cls-7" d="M364.81,440.11c2-1.68,5.24,1.1,5.19,1.2q.35.58.66,1.2c-.45-.42-1.92-.65-3.86-.22S362.82,441.64,364.81,440.11Z" transform="translate(-7.34 -23.75)"/><path class="cls-7" d="M370.89,435.54c2-1.57,3,1.84,1.71,3.44s-1.94,2.91-1.91,3.51c-.18-.42-.37-.83-.57-1.24C370.22,441.24,369,437.1,370.89,435.54Z" transform="translate(-7.34 -23.75)"/><path class="cls-7" d="M362.21,437.2c1.72-2,5.32.18,5.29.28q.44.51.84,1c-.51-.33-2-.29-3.82.46S360.5,439,362.21,437.2Z" transform="translate(-7.34 -23.75)"/><path class="cls-7" d="M367.43,431.68c1.75-1.9,3.29,1.28,2.24,3.06s-1.43,3.18-1.3,3.76c-.25-.37-.5-.74-.77-1.1C367.7,437.37,365.84,433.53,367.43,431.68Z" transform="translate(-7.34 -23.75)"/><path class="cls-7" d="M359.17,434.78c1.37-2.25,5.27-.72,5.25-.62.34.28.67.58,1,.88-.54-.23-2,.06-3.67,1.12S357.8,436.88,359.17,434.78Z" transform="translate(-7.34 -23.75)"/><path class="cls-7" d="M363.39,428.46c1.42-2.16,3.46.71,2.71,2.64s-.88,3.37-.66,3.91c-.3-.32-.61-.64-.93-.95C364.6,434,362.13,430.56,363.39,428.46Z" transform="translate(-7.34 -23.75)"/><path class="cls-7" d="M355.76,432.89c1-2.44,5.09-1.58,5.08-1.48.38.22.76.46,1.13.7-.58-.13-2,.39-3.44,1.72S354.76,435.2,355.76,432.89Z" transform="translate(-7.34 -23.75)"/><path class="cls-7" d="M358.87,426c1-2.37,3.53.12,3.12,2.15s-.31,3.47,0,4q-.53-.4-1.08-.78C361,431.25,358,428.24,358.87,426Z" transform="translate(-7.34 -23.75)"/><path class="cls-7" d="M352.06,431.6c.55-2.57,4.78-2.41,4.78-2.31.42.16.83.33,1.24.51-.6,0-1.87.71-3.11,2.26S351.46,434,352.06,431.6Z" transform="translate(-7.34 -23.75)"/><path class="cls-7" d="M353.94,424.24c.63-2.51,3.54-.46,3.48,1.61s.29,3.47.67,3.92c-.39-.21-.79-.41-1.19-.6C357,429.1,353.47,426.64,353.94,424.24Z" transform="translate(-7.34 -23.75)"/><path class="cls-7" d="M354.44,428.32a15.53,15.53,0,0,0-5.2-2.52c-2-.4-2.81,1-2.48,1.87s1.75,1.07,3,1S354.43,428.25,354.44,428.32Z" transform="translate(-7.34 -23.75)"/><path class="cls-7" d="M354.5,428.45h0a.15.15,0,0,0,.07-.15v0a.11.11,0,0,0-.07-.08,15.32,15.32,0,0,0-5.25-2.54,2.38,2.38,0,0,0-2.35.63,1.48,1.48,0,0,0-.28,1.45c.44,1.15,2.48,1.12,3.1,1.08,1.16-.16,4.36-.38,4.67-.36ZM347.75,426a2.48,2.48,0,0,1,1.46-.08,15.22,15.22,0,0,1,4.8,2.23l-1.5.09c-.94.07-2.17.18-2.81.27-1.16.06-2.51-.14-2.8-.91a1.18,1.18,0,0,1,.23-1.16A1.52,1.52,0,0,1,347.75,426Z" transform="translate(-7.34 -23.75)"/><path class="cls-7" d="M372.93,443a26.9,26.9,0,0,0-1.31-23.82A.21.21,0,0,1,372,419a27.32,27.32,0,0,1,1.41,24Z" transform="translate(-7.34 -23.75)"/><path class="cls-7" d="M371.18,436.49c2.6.35,2.75,4.59,2.65,4.62-.14.43-.28.87-.43,1.29,0-.6-.84-1.84-2.47-3S368.7,436.07,371.18,436.49Z" transform="translate(-7.34 -23.75)"/><path class="cls-7" d="M378.66,437.83c2.54.43.72,3.49-1.36,3.59s-3.45.57-3.87,1c.18-.42.36-.84.52-1.27C374,441.22,376.23,437.51,378.66,437.83Z" transform="translate(-7.34 -23.75)"/><path class="cls-7" d="M371.54,432.6c2.62-.09,3.49,4,3.39,4.07-.05.44-.12.89-.2,1.33-.1-.59-1.14-1.66-2.94-2.48S369,432.61,371.54,432.6Z" transform="translate(-7.34 -23.75)"/><path class="cls-7" d="M379.14,432.67c2.58,0,1.3,3.29-.73,3.73s-3.3,1.12-3.64,1.6c.11-.43.21-.87.29-1.31C375.15,436.75,376.69,432.77,379.14,432.67Z" transform="translate(-7.34 -23.75)"/><path class="cls-7" d="M371.24,428.73c2.58-.53,4.12,3.37,4,3.42,0,.45,0,.89,0,1.33-.21-.55-1.4-1.42-3.32-1.93S368.77,429.15,371.24,428.73Z" transform="translate(-7.34 -23.75)"/><path class="cls-7" d="M378.75,427.52c2.54-.43,1.83,3-.09,3.79s-3.07,1.64-3.33,2.17c0-.44.06-.88.07-1.33C375.49,432.2,376.35,428,378.75,427.52Z" transform="translate(-7.34 -23.75)"/><path class="cls-7" d="M370.3,425c2.46-.95,4.63,2.65,4.55,2.71.09.43.17.87.25,1.31-.3-.52-1.62-1.17-3.59-1.35S367.94,425.78,370.3,425Z" transform="translate(-7.34 -23.75)"/><path class="cls-7" d="M377.5,422.5c2.44-.85,2.31,2.68.54,3.76s-2.74,2.13-2.91,2.7q-.06-.66-.15-1.32C375.08,427.67,375.22,423.41,377.5,422.5Z" transform="translate(-7.34 -23.75)"/><path class="cls-7" d="M368.73,421.36c2.26-1.35,5,1.86,4.95,1.93.16.41.32.83.46,1.25-.37-.46-1.79-.89-3.76-.74S366.54,422.58,368.73,421.36Z" transform="translate(-7.34 -23.75)"/><path class="cls-7" d="M375.41,417.73c2.26-1.25,2.75,2.28,1.18,3.64s-2.35,2.57-2.41,3.16c-.11-.43-.24-.86-.38-1.28C373.91,423.26,373.32,419,375.41,417.73Z" transform="translate(-7.34 -23.75)"/><path class="cls-7" d="M372.76,420.87a15.73,15.73,0,0,0-1.7-5.53c-1.09-1.76-2.67-1.35-3.06-.54s.41,2,1.29,2.85S372.79,420.81,372.76,420.87Z" transform="translate(-7.34 -23.75)"/><path class="cls-7" d="M372.7,421h0a.17.17,0,0,0,.16-.06h0a.09.09,0,0,0,0-.11,15.33,15.33,0,0,0-1.72-5.57,2.33,2.33,0,0,0-2.05-1.29,1.46,1.46,0,0,0-1.26.77c-.54,1.11.87,2.58,1.32,3,.91.74,3.25,2.93,3.44,3.18A.16.16,0,0,0,372.7,421Zm-2.82-6.6a2.47,2.47,0,0,1,1.06,1,15.2,15.2,0,0,1,1.63,5c-.21-.21-.55-.53-1.09-1-.69-.65-1.6-1.48-2.1-1.88-.84-.81-1.61-1.93-1.25-2.67a1.19,1.19,0,0,1,1-.62A1.5,1.5,0,0,1,369.88,414.4Z" transform="translate(-7.34 -23.75)"/></g></svg>